<svg id="f4b01a85-2254-4bd9-9e24-99c1dea19c99" data-name="Слой 1" xmlns="http://www.w3.org/2000/svg" viewBox="0 0 246.69 254.81"><title>but1</title><path d="M252.95,125.23C247.33,63.87,192.26,8.8,130,2.89,67.74-1.95,12.67,53.8,7.05,126.44S56.25,262.7,130,257.06C203.74,250.6,258.59,186.45,252.95,125.23Z" transform="translate(-6.65 -2.59)" fill="#4c4070"/><path d="M120.93,243.54a104.59,104.59,0,0,1-75.84-31.79,109.25,109.25,0,0,1-30-85c5-62.35,52.24-111.19,107.43-111.19,2.27,0,4.56.08,6.83.25,28.21,2.58,55.81,15.49,77.74,36.35s35.36,47,37.91,73.54c2.37,24.59-7.17,51.16-26.19,72.91-22.28,25.47-54.87,41.74-89.43,44.64-2.8.2-5.63.31-8.4.31Z" transform="translate(-6.65 -2.59)" fill="#fff"/><path d="M121.21,246.4A103.73,103.73,0,0,1,46,214.88a108.51,108.51,0,0,1-29.83-84.44C21.19,68.29,68,19.6,122.81,19.6c2.24,0,4.5.08,6.74.25,28.08,2.57,55.67,15.48,77.61,36.35S242.44,103,245,129.42c2.34,24.22-7.14,50.48-26,72.05-22.26,25.46-54.86,41.72-89.43,44.63-2.75.2-5.56.3-8.32.3Z" transform="translate(-6.65 -2.59)" fill="#00ace4"/><path d="M186,151.1a249.83,249.83,0,0,1-78.77,36.71c-9.88,2.41-18.93-6.2-17-14.68a210.43,210.43,0,0,0,2.9-74.62C92,89.81,100.5,81.29,109.48,84c26.27,8.29,52.5,21.52,75.88,37.59C194.43,127.63,195,145,186,151.1Z" transform="translate(-6.65 -2.59)" fill="#ffefe5"/><path d="M107.69,180.84a16,16,0,0,1-12.29-6,14.87,14.87,0,0,1-3.14-12.48,188,188,0,0,0,2.29-62.92,16.6,16.6,0,0,1,4-12.89,14.68,14.68,0,0,1,10.92-5.16,13.61,13.61,0,0,1,4.1.64l.14,0c21.52,7.21,42.64,18.33,62.78,33.05,4.69,3.37,7.61,9.82,7.63,16.84,0,6.75-2.61,12.7-7,15.91a201.82,201.82,0,0,1-65.43,32.4l-.2.05A15.49,15.49,0,0,1,107.69,180.84Z" transform="translate(-6.65 -2.59)" fill="none" stroke="#4c4271" stroke-miterlimit="10" stroke-width="10"/><path d="M104.11,177.52a9.15,9.15,0,0,1-6.83-3.17,7,7,0,0,1-1.74-6.08,194.21,194.21,0,0,0,2.71-69.35A8.58,8.58,0,0,1,100.63,92a7.73,7.73,0,0,1,5.52-2.58,6.72,6.72,0,0,1,1.9.28,258.69,258.69,0,0,1,68.37,33.75c3,2,4.85,6.26,4.86,11,0,4.37-1.6,8.18-4.22,9.95a224.72,224.72,0,0,1-70.88,32.91A9,9,0,0,1,104.11,177.52Z" transform="translate(-6.65 -2.59)" fill="#0072bf"/><path d="M64.53,85c6.24-13.77,11.42-24.29,8.33-29.05C70.07,51.33,57.34,54.78,47.62,70s-8.06,34.87-1.6,37.85C52.4,111.1,58.17,98.59,64.53,85Z" transform="translate(-6.65 -2.59)" fill="#fff1e5"/><path d="M46.81,132.73c.56-7.41,1.21-13.17-1.42-14.36-2.44-1.2-8.6,3.57-10.73,12.51s2.75,16.73,6.83,16.29S46.14,140.09,46.81,132.73Z" transform="translate(-6.65 -2.59)" fill="#fff1e5"/></svg>