<?xml version="1.0" encoding="utf-8"?>
<!-- Generator: Adobe Illustrator 20.1.0, SVG Export Plug-In . SVG Version: 6.00 Build 0)  -->
<svg version="1.1" id="Слой_1" xmlns="http://www.w3.org/2000/svg" xmlns:xlink="http://www.w3.org/1999/xlink" x="0px" y="0px"
	 viewBox="0 0 260 260" style="enable-background:new 0 0 260 260;" xml:space="preserve">
<style type="text/css">
	.st0{fill:#4C4070;}
	.st1{fill:#FFFFFF;}
	.st2{fill:#29ABE2;}
	.st3{fill:#FFF1E5;}
	.st4{fill:#0072BF;}
	.st5{fill:#4C4271;}
</style>
<title>Монтажная область 1</title>
<path class="st0" d="M252.9,124.2C247.3,62.9,192.3,7.8,130,1.9C67.7-3,12.7,52.8,7.1,125.4S56.3,261.7,130,256.1
	C203.7,249.6,258.6,185.4,252.9,124.2z"/>
<path class="st1" d="M120.9,242.5c-28.6,0.2-56-11.3-75.8-31.8c-21.8-22.7-32.7-53.7-30-85c5-62.3,52.2-111.2,107.4-111.2
	c2.3,0,4.6,0.1,6.8,0.3c28.2,2.6,55.8,15.5,77.7,36.3s35.4,47,37.9,73.5c2.4,24.6-7.2,51.2-26.2,72.9
	c-22.3,25.5-54.9,41.7-89.4,44.6C126.6,242.4,123.8,242.6,120.9,242.5L120.9,242.5z"/>
<path class="st2" d="M121.2,245.4c-28.3,0.2-55.5-11.2-75.2-31.5c-21.6-22.5-32.5-53.3-29.8-84.4C21.2,67.3,68,18.6,122.8,18.6
	c2.2,0,4.5,0.1,6.7,0.3c28.1,2.6,55.7,15.5,77.6,36.3s35.3,46.8,37.8,73.2c2.3,24.2-7.1,50.5-26,72.1
	c-22.3,25.5-54.9,41.7-89.4,44.6C126.8,245.3,124,245.4,121.2,245.4L121.2,245.4z"/>
<path class="st3" d="M64.5,84c6.2-13.8,11.4-24.3,8.3-29c-2.8-4.6-15.5-1.2-25.2,14s-8.1,34.9-1.6,37.8
	C52.4,110.1,58.2,97.6,64.5,84z"/>
<path class="st3" d="M46.8,131.7c0.6-7.4,1.2-13.2-1.4-14.4c-2.4-1.2-8.6,3.6-10.7,12.5s2.8,16.7,6.8,16.3S46.1,139.1,46.8,131.7z"
	/>
<path class="st3" d="M113.7,87.8L113.7,87.8c-8.1-0.7-15.5,6-16.2,15c-1.8,23.6-1.9,47.2-0.2,70.8c0.6,9,8.1,15.7,16.4,15l0,0
	c8.3-0.7,14.2-8.1,13.5-16.6c-1.7-22.5-1.8-45.1-0.2-67.6C127.6,95.9,121.8,88.5,113.7,87.8z"/>
<path class="st3" d="M154.5,88.6L154.5,88.6c-8.4-0.7-16,6.1-16.7,15.1c-1.9,23.7-1.9,47.5-0.2,71.2c0.6,9.1,8.4,15.8,16.9,15.1l0,0
	c8.5-0.7,14.7-8.2,14-16.6c0,0,0-0.1,0-0.1c-1.8-22.6-1.8-45.4-0.2-68C168.9,96.7,162.9,89.3,154.5,88.6z"/>
<path class="st4" d="M109.8,100.7L109.8,100.7c-6.3-0.6-12.1,4.9-12.6,12.2c-1.4,19.2-1.5,38.4-0.2,57.6c0.5,7.3,6.3,12.8,12.8,12.2
	l0,0c6.4-0.6,11.1-6.6,10.6-13.6c-1.3-18.3-1.4-36.7-0.2-55C120.7,107.3,116.1,101.2,109.8,100.7z"/>
<path class="st4" d="M151.2,99.7L151.2,99.7c-6.2-0.6-12,4.9-12.5,12.2c-1.4,19.2-1.4,38.4-0.2,57.6c0.5,7.3,6.3,12.8,12.6,12.2l0,0
	c6.4-0.6,10.9-6.6,10.4-13.6c-1.3-18.3-1.4-36.7-0.2-55C161.9,106.3,157.4,100.2,151.2,99.7z"/>
<path class="st5" d="M107.9,187.3c-4.4,0-8.7-1.6-12-4.5c-4-3.4-6.4-8.2-6.7-13.4c-1.6-21.7-1.5-43.6,0.2-65.3
	c0.4-5.2,2.9-10.1,6.8-13.5c3.6-3.2,8.4-4.7,13.2-4.4l0,0c10.1,0.8,17.4,9.6,16.6,20c-1.5,20.3-1.4,40.7,0.2,61
	c0.9,10.1-6.5,19-16.5,20c-0.1,0-0.2,0-0.3,0C108.9,187.2,108.4,187.3,107.9,187.3z M108,95.1c-2.2,0-4.3,0.8-5.9,2.3
	c-2.2,1.9-3.5,4.5-3.7,7.3c-1.7,21.3-1.7,42.6-0.2,63.9c0.2,2.8,1.5,5.4,3.6,7.2c3.9,3.4,9.8,3,13.2-0.8c1.7-2,2.6-4.6,2.3-7.2
	c-1.6-20.7-1.7-41.6-0.2-62.3c0.4-5.4-3.3-10-8.4-10.4l0,0L108,95.1z"/>
<path class="st5" d="M148.6,187.3c-4.4,0-8.7-1.6-12-4.5c-4-3.4-6.4-8.2-6.7-13.4c-1.6-21.7-1.5-43.6,0.2-65.3
	c0.4-5.2,2.9-10.1,6.8-13.5c3.6-3.2,8.4-4.7,13.2-4.4l0,0c10.1,0.8,17.4,9.6,16.6,20c-1.5,20.3-1.4,40.7,0.2,61
	c0.9,10.1-6.5,19-16.5,20c-0.1,0-0.2,0-0.3,0C149.6,187.2,149.1,187.3,148.6,187.3z M148.7,95.1c-2.2,0-4.3,0.8-5.9,2.3
	c-2.2,1.9-3.5,4.5-3.7,7.3c-1.7,21.3-1.7,42.6-0.2,63.9c0.2,2.8,1.5,5.4,3.6,7.2c3.9,3.4,9.8,3,13.2-0.8c1.7-2,2.6-4.6,2.3-7.2
	c-1.6-20.7-1.7-41.6-0.2-62.3c0.4-5.4-3.3-10-8.4-10.4l0,0L148.7,95.1z"/>
</svg>
