<?xml version="1.0" encoding="utf-8"?>
<!-- Generator: Adobe Illustrator 20.1.0, SVG Export Plug-In . SVG Version: 6.00 Build 0)  -->
<svg version="1.1" id="Слой_1" xmlns="http://www.w3.org/2000/svg" xmlns:xlink="http://www.w3.org/1999/xlink" x="0px" y="0px"
	 width="256px" height="256px" viewBox="0 0 256 256" style="enable-background:new 0 0 256 256;" xml:space="preserve">
<path style="fill:#03A9F4;" d="M22.04443,204.21973c7.80908,0,14.02344,5.45215,14.02344,12.30273
	c0,6.85156-6.21436,12.30371-14.02344,12.30371c-7.80859,0-14.02295-5.45215-14.02295-12.30371
	C8.02148,209.67188,14.23584,204.21973,22.04443,204.21973z M22.04443,222.84375c3.90479,0,6.98438-2.75098,6.98438-6.32129
	s-3.07959-6.32031-6.98438-6.32031c-3.9043,0-6.98389,2.75-6.98389,6.32031S18.14014,222.84375,22.04443,222.84375z"/>
<path style="fill:#03A9F4;" d="M47.39209,204.79883v14.18457c0,2.89453,2.47461,3.86035,3.9043,3.86035
	c1.86963,0,3.95947-1.39941,3.95947-3.86035v-14.18457h7.03906v14.18457c0,2.46094,2.08984,3.86035,3.95947,3.86035
	c1.42969,0,3.90479-0.96582,3.90479-3.86035v-14.18457h7.03906v13.79883c0,3.37695-0.16504,6.75488-4.89453,9.07031
	c-3.62939,1.78516-9.73389,1.83398-13.52832-2.46094c-2.41943,2.70215-5.49902,3.61914-8.35889,3.61914
	c-1.81494,0-3.57471-0.38574-5.16943-1.1582c-4.729-2.31543-4.89404-5.69336-4.89404-9.07031v-13.79883H47.39209z"/>
<path style="fill:#03A9F4;" d="M82.25195,215.79883c0-3.71484,0.05469-7.71973,5.2793-10.3252
	c1.75977-0.86816,3.79443-1.25391,5.77393-1.25391c1.97998,0,4.01465,0.38574,5.77441,1.25391
	c5.22412,2.60547,5.2793,6.61035,5.2793,10.3252v12.44824h-7.03906v-13.31641c0-1.64063-0.33008-4.72852-4.01465-4.72852
	c-3.68408,0-4.01416,3.08789-4.01416,4.72852v13.31641h-7.03906V215.79883z"/>
<path style="fill:#333333;" d="M109.85449,228.24707v-22.53223c0-7.6709,5.38916-11.82031,13.0332-11.82031
	c8.13867,0,12.37305,4.77637,12.37305,10.27637c0,4.8252-3.57422,6.51367-4.78418,6.99609
	c5.22461,1.25488,5.33398,5.30762,5.33398,7.81641v9.26367h-8.13867v-8.54004c0-1.20605-0.05469-2.50879-0.65967-3.3291
	c-0.93506-1.20605-2.52979-1.30273-3.90479-1.30273h-2.91455v-6.27246h1.59473c5.11475,0,5.33447-3.3291,5.33447-3.95605
	c0-2.36426-1.86963-4.00488-4.56445-4.00488c-2.14453,0-4.56445,1.11035-4.56445,4.92188v22.4834H109.85449z"/>
<path style="fill:#333333;" d="M160.99414,218.35645c0-3.2334-0.71484-8.1543-6.87402-8.1543
	c-3.90527,0-6.98438,2.55762-6.98438,6.46582c0,2.55664,1.64941,6.17578,7.42383,6.17578c2.47461,0,3.5752-0.5791,4.23438-1.11035
	v6.17578c-1.20996,0.43457-2.96973,0.91699-5.11426,0.91699c-6.6543,0-13.58301-4.29395-13.58301-11.86914
	c0-6.0791,5.00391-12.7373,14.18848-12.7373c5.05859,0,13.74805,2.12305,13.74805,13.70215v10.3252h-7.03906V218.35645z"/>
<path style="fill:#333333;" d="M200.08984,214.64063c0,4.53613-0.87988,9.45703-6.87402,12.54492
	c-2.08984,1.06152-4.45508,1.64063-6.87402,1.64063c-7.80957,0-14.02344-5.5-14.02344-12.30371
	c0-6.89941,6.21387-12.30273,14.02344-12.30273c1.64941,0,3.13477,0.24121,4.50879,0.6748v6.17578
	c-1.20996-0.48242-2.69434-0.86816-4.12402-0.86816c-3.41016,0-7.36914,2.0752-7.36914,6.32031
	c0,3.52246,3.02441,6.32129,6.98438,6.32129c1.1543,0,2.30957-0.29004,3.35449-0.82031
	c3.40918-1.78516,3.35449-4.53613,3.35449-6.85156v-20.69824h7.03906V214.64063z"/>
<path style="fill:#333333;" d="M209.59961,193.89453c2.47461,0,4.4541,1.73633,4.4541,3.9082c0,2.1709-1.97949,3.9082-4.4541,3.9082
	s-4.45508-1.7373-4.45508-3.9082C205.14453,195.63086,207.125,193.89453,209.59961,193.89453z M206.08008,228.24707v-23.44824
	h7.03906v23.44824H206.08008z"/>
<path style="fill:#333333;" d="M232.36426,204.21973c7.80859,0,14.02246,5.45215,14.02246,12.30273
	c0,6.85156-6.21387,12.30371-14.02246,12.30371c-7.80957,0-14.02344-5.45215-14.02344-12.30371
	C218.34082,209.67188,224.55469,204.21973,232.36426,204.21973z M232.36426,222.84375c3.9043,0,6.9834-2.75098,6.9834-6.32129
	s-3.0791-6.32031-6.9834-6.32031c-3.90527,0-6.98438,2.75-6.98438,6.32031S228.45898,222.84375,232.36426,222.84375z"/>
<path style="fill:#03A9F4;" d="M116.0162,176.29335c-24.82371-5.08365-43.52638-27.05124-43.52638-53.40123
	c0-19.95357,10.84184-37.20944,26.82923-46.71181c5.09272,10.97471,15.49055,22.18904,29.81025,30.46664
	c18.77364,10.83276,38.68236,13.5032,51.60013,8.33097c0.39066,2.60854,0.78075,5.19947,0.78075,7.9142
	c0,26.34999-18.6669,48.31758-43.50877,53.40123c34.88538-5.33234,61.67883-35.1954,61.67883-71.57129
	c0-40.13709-32.54259-72.68024-72.68024-72.68024c-40.11949,0-72.68024,32.54315-72.68024,72.68024
	C54.31976,141.09795,81.14899,170.96101,116.0162,176.29335z"/>
<path style="fill:#333333;" d="M127.00845,156.06311c-5.06951,0-9.92165-1.57283-14.40479-4.43127
	c4.41568,5.39592,9.28556,8.39462,14.40479,8.39462c5.11324,0,9.97633-2.99928,14.3879-8.38327
	C136.91798,154.49477,132.07156,156.06311,127.00845,156.06311z"/>
<path style="fill:#333333;" d="M127,13.70407c-47.40913,0-86.47557,34.5677-92.06028,79.17778
	c4.33388-3.10788,9.27234-5.18412,14.47735-5.74724C57.29013,52.52818,89.0237,26.63473,127,26.63473
	s69.70987,25.89345,77.58293,60.49989c5.20502,0.56312,10.14348,2.63936,14.47736,5.74724
	C213.47557,48.27177,174.40913,13.70407,127,13.70407z"/>
<g>
	<path style="fill:#333333;" d="M30.65355,151.70778c3.35141,3.03152,7.35822,5.31343,11.74083,6.67256
		c3.27949,1.01802,12.29613,1.52133,15.89722,1.38765L51.84909,143.237c-2.66536,0.09892-5.61785,0.0558-8.04523-0.69765
		c-3.24382-1.00598-6.20953-2.69502-8.69012-4.93884c-4.24441-3.82964-7.0949-9.21857-7.58048-15.35269
		c-0.9822-12.40768,8.68364-26.78519,20.92611-28.27885c-16.54019,2.01799-29.3745,20.23301-28.04749,36.99645
		C21.06792,139.25298,24.9191,146.53363,30.65355,151.70778z"/>
	<path style="fill:#333333;" d="M223.34645,151.70778c-3.35141,3.03152-7.35823,5.31343-11.74083,6.67256
		c-3.2795,1.01802-12.29613,1.52133-15.89723,1.38765l6.44252-16.53099c2.66536,0.09892,5.61786,0.0558,8.04524-0.69765
		c3.24382-1.00598,6.20952-2.69502,8.69011-4.93884c4.24442-3.82964,7.09489-9.21857,7.58047-15.35269
		c0.98221-12.40768-8.68364-26.78519-20.9261-28.27885c16.54019,2.01799,29.37451,20.23301,28.0475,36.99645
		C232.93208,139.25298,229.0809,146.53363,223.34645,151.70778z"/>
</g>
<g>
	<path style="fill:#333333;" d="M103.41945,123.82806c-2.6758,0-5.23688-0.83017-7.60319-2.33893
		c2.3307,2.84809,4.90114,4.43088,7.60319,4.43088c2.69888,0,5.26573-1.58308,7.59427-4.42488
		C108.64993,123.00026,106.09187,123.82806,103.41945,123.82806z"/>
	<path style="fill:#333333;" d="M150.58946,123.82806c-2.6758,0-5.23688-0.83017-7.60318-2.33893
		c2.3307,2.84809,4.90114,4.43088,7.60318,4.43088c2.6989,0,5.26573-1.58308,7.59427-4.42488
		C155.81995,123.00026,153.2619,123.82806,150.58946,123.82806z"/>
</g>
</svg>
