<?xml version="1.0" encoding="utf-8"?>
<!-- Generator: Adobe Illustrator 18.0.0, SVG Export Plug-In . SVG Version: 6.00 Build 0)  -->
<!DOCTYPE svg PUBLIC "-//W3C//DTD SVG 1.1//EN" "http://www.w3.org/Graphics/SVG/1.1/DTD/svg11.dtd">
<svg version="1.1" id="Layer_1" xmlns="http://www.w3.org/2000/svg" xmlns:xlink="http://www.w3.org/1999/xlink" x="0px" y="0px"
	 viewBox="50 40.5 30 30" enable-background="new 50 40.5 30 30" xml:space="preserve">
<path fill-rule="evenodd" clip-rule="evenodd" fill="#419CDB" d="M65,40.5c-8.3,0-15,6.7-15,15s6.7,15,15,15c8.3,0,15-6.7,15-15
	S73.3,40.5,65,40.5z M64,62.3c0,0.1-0.1,0.3-0.3,0.3h-3.9c-0.1,0-0.3-0.1-0.3-0.3V49.1c0-0.1,0.1-0.3,0.3-0.3h3.9
	c0.1,0,0.3,0.1,0.3,0.3V62.3z M70.4,62.3c0,0.1-0.1,0.3-0.3,0.3h-3.9c-0.1,0-0.3-0.1-0.3-0.3V49.1c0-0.1,0.1-0.3,0.3-0.3h3.9
	c0.1,0,0.3,0.1,0.3,0.3V62.3z"/>
</svg>
