<?xml version="1.0" encoding="utf-8"?>
<!-- Generator: Adobe Illustrator 18.0.0, SVG Export Plug-In . SVG Version: 6.00 Build 0)  -->
<!DOCTYPE svg PUBLIC "-//W3C//DTD SVG 1.1//EN" "http://www.w3.org/Graphics/SVG/1.1/DTD/svg11.dtd">
<svg version="1.1" id="Layer_1" xmlns="http://www.w3.org/2000/svg" xmlns:xlink="http://www.w3.org/1999/xlink" x="0px" y="0px"
	 viewBox="100 40.5 30 30" enable-background="new 100 40.5 30 30" xml:space="preserve">
<g>
	<path fill-rule="evenodd" clip-rule="evenodd" fill="#419CDB" d="M111.6,55.7c0.2-0.1,0.2-0.4,0-0.5l-11.1-6.8
		c-0.2-0.1-0.4,0-0.4,0.2L100,62.4c0,0.3,0.2,0.4,0.4,0.2L111.6,55.7z M123.7,55.7c0.2-0.1,0.2-0.4,0-0.5l-11.1-6.8
		c-0.2-0.1-0.4,0-0.4,0.2l-0.1,13.7c0,0.3,0.2,0.4,0.4,0.2L123.7,55.7z"/>
	<path fill-rule="evenodd" clip-rule="evenodd" fill="#419CDB" d="M125.6,48.8c0-0.3,0.2-0.5,0.5-0.5h3.4c0.3,0,0.5,0.2,0.5,0.5
		v13.3c0,0.3-0.2,0.5-0.5,0.5h-3.4c-0.3,0-0.5-0.2-0.5-0.5V48.8z"/>
</g>
</svg>
